<svg width="23" height="23" viewBox="0 0 23 23" fill="none" xmlns="http://www.w3.org/2000/svg">
    <path
        d="M22.1576 8.69115L14.8887 1.42123C13.989 0.524222 12.7704 0.0205078 11.5 0.0205078C10.2296 0.0205078 9.01099 0.524222 8.11135 1.42123L0.842387 8.69115C0.574461 8.95736 0.362041 9.2741 0.217441 9.62302C0.0728403 9.97194 -0.00106413 10.3461 1.15762e-05 10.7238V20.1317C1.15762e-05 20.8942 0.302913 21.6255 0.84208 22.1647C1.38125 22.7038 2.11251 23.0067 2.87501 23.0067H20.125C20.8875 23.0067 21.6188 22.7038 22.1579 22.1647C22.6971 21.6255 23 20.8942 23 20.1317V10.7238C23.0011 10.3461 22.9272 9.97194 22.7826 9.62302C22.638 9.2741 22.4256 8.95736 22.1576 8.69115ZM14.375 21.0901H8.62501V17.32C8.62501 16.5575 8.92791 15.8262 9.46708 15.2871C10.0062 14.7479 10.7375 14.445 11.5 14.445C12.2625 14.445 12.9938 14.7479 13.5329 15.2871C14.0721 15.8262 14.375 16.5575 14.375 17.32V21.0901ZM21.0833 20.1317C21.0833 20.3859 20.9824 20.6297 20.8027 20.8094C20.6229 20.9891 20.3792 21.0901 20.125 21.0901H16.2917V17.32C16.2917 16.0492 15.7868 14.8304 14.8882 13.9318C13.9896 13.0332 12.7708 12.5283 11.5 12.5283C10.2292 12.5283 9.0104 13.0332 8.11179 13.9318C7.21318 14.8304 6.70834 16.0492 6.70834 17.32V21.0901H2.87501C2.62085 21.0901 2.37709 20.9891 2.19737 20.8094C2.01765 20.6297 1.91668 20.3859 1.91668 20.1317V10.7238C1.91757 10.4698 2.01844 10.2264 2.19747 10.0462L9.46643 2.77919C10.0066 2.2415 10.7378 1.93964 11.5 1.93964C12.2622 1.93964 12.9934 2.2415 13.5336 2.77919L20.8026 10.0491C20.9809 10.2286 21.0817 10.4708 21.0833 10.7238V20.1317Z"
        fill="white" />
</svg>